<svg width="20" height="27" viewBox="0 0 20 27" fill="none" xmlns="http://www.w3.org/2000/svg">
<path fill-rule="evenodd" clip-rule="evenodd" d="M18.3333 3.33329H15C15 2.41663 14.25 1.66663 13.3333 1.66663H8.33334C7.41667 1.66663 6.66667 2.41663 6.66667 3.33329H3.33334C2.41667 3.33329 1.66667 4.08329 1.66667 4.99996V6.66663C1.66667 7.58329 2.41667 8.33329 3.33334 8.33329V23.3333C3.33334 24.25 4.08334 25 5 25H16.6667C17.5833 25 18.3333 24.25 18.3333 23.3333V8.33329C19.25 8.33329 20 7.58329 20 6.66663V4.99996C20 4.08329 19.25 3.33329 18.3333 3.33329ZM16.6667 23.3333H5V8.33329H6.66667V21.6666H8.33334V8.33329H10V21.6666H11.6667V8.33329H13.3333V21.6666H15V8.33329H16.6667V23.3333ZM18.3333 6.66663H3.33334V4.99996H18.3333V6.66663Z" fill="#3369F3"/>
</svg>
